<?xml version="1.0" encoding="UTF-8" standalone="no"?>
<!DOCTYPE svg PUBLIC "-//W3C//DTD SVG 1.1//EN"
 "http://www.w3.org/Graphics/SVG/1.1/DTD/svg11.dtd">
<!-- Generated by graphviz version 2.38.0 (20140413.2041)
 -->
<!-- Title: controllers_diagram Pages: 1 -->
<svg width="455pt" height="367pt"
 viewBox="0.00 0.00 455.24 367.00" xmlns="http://www.w3.org/2000/svg" xmlns:xlink="http://www.w3.org/1999/xlink">
<g id="graph0" class="graph" transform="scale(1 1) rotate(0) translate(138.548 258.5)">
<title>controllers_diagram</title>
<polygon fill="none" stroke="none" points="-138.548,108.5 -138.548,-258.5 316.688,-258.5 316.688,108.5 -138.548,108.5"/>
<!-- _diagram_info -->
<g id="node1" class="node"><title>_diagram_info</title>
<text text-anchor="start" x="113.312" y="45.9" font-family="Times,serif" font-size="13.00">Controllers diagram</text>
<text text-anchor="start" x="113.312" y="58.9" font-family="Times,serif" font-size="13.00">Date: Jun 05 2016 &#45; 20:17</text>
<text text-anchor="start" x="113.312" y="71.9" font-family="Times,serif" font-size="13.00">Migration version: 20160526010928</text>
<text text-anchor="start" x="113.312" y="84.9" font-family="Times,serif" font-size="13.00">Generated by RailRoady 1.4.2</text>
<text text-anchor="start" x="113.312" y="97.9" font-family="Times,serif" font-size="13.00">http://railroady.prestonlee.com</text>
</g>
<!-- ApplicationController -->
<g id="node2" class="node"><title>ApplicationController</title>
<path fill="none" stroke="black" d="M117.179,-1C117.179,-1 232.821,-1 232.821,-1 238.821,-1 244.821,-7 244.821,-13 244.821,-13 244.821,-93 244.821,-93 244.821,-99 238.821,-105 232.821,-105 232.821,-105 117.179,-105 117.179,-105 111.179,-105 105.179,-99 105.179,-93 105.179,-93 105.179,-13 105.179,-13 105.179,-7 111.179,-1 117.179,-1"/>
<text text-anchor="middle" x="175" y="-89.8" font-family="Times,serif" font-size="14.00">ApplicationController</text>
<polyline fill="none" stroke="black" points="105.179,-83 244.821,-83 "/>
<text text-anchor="start" x="113.179" y="-67.8" font-family="Times,serif" font-size="14.00">current_user</text>
<text text-anchor="start" x="113.179" y="-53.8" font-family="Times,serif" font-size="14.00">logged_in?</text>
<polyline fill="none" stroke="black" points="105.179,-47 244.821,-47 "/>
<polyline fill="none" stroke="black" points="105.179,-23 244.821,-23 "/>
<text text-anchor="start" x="113.179" y="-7.8" font-family="Times,serif" font-size="14.00">_layout</text>
</g>
<!-- CompromissosController -->
<g id="node3" class="node"><title>CompromissosController</title>
<path fill="none" stroke="black" d="M-77.7793,104C-77.7793,104 55.7793,104 55.7793,104 61.7793,104 67.7793,98 67.7793,92 67.7793,92 67.7793,-86 67.7793,-86 67.7793,-92 61.7793,-98 55.7793,-98 55.7793,-98 -77.7793,-98 -77.7793,-98 -83.7793,-98 -89.7793,-92 -89.7793,-86 -89.7793,-86 -89.7793,92 -89.7793,92 -89.7793,98 -83.7793,104 -77.7793,104"/>
<text text-anchor="middle" x="-11" y="-82.8" font-family="Times,serif" font-size="14.00">CompromissosController</text>
<polyline fill="none" stroke="black" points="-89.7793,-76 67.7793,-76 "/>
<text text-anchor="start" x="-81.7793" y="-60.8" font-family="Times,serif" font-size="14.00">create</text>
<text text-anchor="start" x="-81.7793" y="-46.8" font-family="Times,serif" font-size="14.00">destroy</text>
<text text-anchor="start" x="-81.7793" y="-32.8" font-family="Times,serif" font-size="14.00">edit</text>
<text text-anchor="start" x="-81.7793" y="-18.8" font-family="Times,serif" font-size="14.00">index</text>
<text text-anchor="start" x="-81.7793" y="-4.8" font-family="Times,serif" font-size="14.00">new</text>
<text text-anchor="start" x="-81.7793" y="9.2" font-family="Times,serif" font-size="14.00">show</text>
<text text-anchor="start" x="-81.7793" y="23.2" font-family="Times,serif" font-size="14.00">update</text>
<polyline fill="none" stroke="black" points="-89.7793,30 67.7793,30 "/>
<polyline fill="none" stroke="black" points="-89.7793,54 67.7793,54 "/>
<text text-anchor="start" x="-81.7793" y="69.2" font-family="Times,serif" font-size="14.00">_layout</text>
<text text-anchor="start" x="-81.7793" y="83.2" font-family="Times,serif" font-size="14.00">compromisso_params</text>
<text text-anchor="start" x="-81.7793" y="97.2" font-family="Times,serif" font-size="14.00">set_compromisso</text>
</g>
<!-- LoginController -->
<g id="node4" class="node"><title>LoginController</title>
<path fill="none" stroke="black" d="M146.507,-136C146.507,-136 229.493,-136 229.493,-136 235.493,-136 241.493,-142 241.493,-148 241.493,-148 241.493,-242 241.493,-242 241.493,-248 235.493,-254 229.493,-254 229.493,-254 146.507,-254 146.507,-254 140.507,-254 134.507,-248 134.507,-242 134.507,-242 134.507,-148 134.507,-148 134.507,-142 140.507,-136 146.507,-136"/>
<text text-anchor="middle" x="188" y="-238.8" font-family="Times,serif" font-size="14.00">LoginController</text>
<polyline fill="none" stroke="black" points="134.507,-232 241.493,-232 "/>
<text text-anchor="start" x="142.507" y="-216.8" font-family="Times,serif" font-size="14.00">create</text>
<text text-anchor="start" x="142.507" y="-202.8" font-family="Times,serif" font-size="14.00">destroy</text>
<text text-anchor="start" x="142.507" y="-188.8" font-family="Times,serif" font-size="14.00">new</text>
<polyline fill="none" stroke="black" points="134.507,-182 241.493,-182 "/>
<polyline fill="none" stroke="black" points="134.507,-158 241.493,-158 "/>
<text text-anchor="start" x="142.507" y="-142.8" font-family="Times,serif" font-size="14.00">_layout</text>
</g>
<!-- SalasController -->
<g id="node5" class="node"><title>SalasController</title>
<path fill="none" stroke="black" d="M-122.548,-136C-122.548,-136 -43.4517,-136 -43.4517,-136 -37.4517,-136 -31.4517,-142 -31.4517,-148 -31.4517,-148 -31.4517,-216 -31.4517,-216 -31.4517,-222 -37.4517,-228 -43.4517,-228 -43.4517,-228 -122.548,-228 -122.548,-228 -128.548,-228 -134.548,-222 -134.548,-216 -134.548,-216 -134.548,-148 -134.548,-148 -134.548,-142 -128.548,-136 -122.548,-136"/>
<text text-anchor="middle" x="-83" y="-212.8" font-family="Times,serif" font-size="14.00">SalasController</text>
<polyline fill="none" stroke="black" points="-134.548,-206 -31.4517,-206 "/>
<polyline fill="none" stroke="black" points="-134.548,-182 -31.4517,-182 "/>
<polyline fill="none" stroke="black" points="-134.548,-158 -31.4517,-158 "/>
<text text-anchor="start" x="-126.548" y="-142.8" font-family="Times,serif" font-size="14.00">_layout</text>
</g>
<!-- UsersController -->
<g id="node6" class="node"><title>UsersController</title>
<path fill="none" stroke="black" d="M12.2861,-136C12.2861,-136 93.7139,-136 93.7139,-136 99.7139,-136 105.714,-142 105.714,-148 105.714,-148 105.714,-228 105.714,-228 105.714,-234 99.7139,-240 93.7139,-240 93.7139,-240 12.2861,-240 12.2861,-240 6.28613,-240 0.286133,-234 0.286133,-228 0.286133,-228 0.286133,-148 0.286133,-148 0.286133,-142 6.28613,-136 12.2861,-136"/>
<text text-anchor="middle" x="53" y="-224.8" font-family="Times,serif" font-size="14.00">UsersController</text>
<polyline fill="none" stroke="black" points="0.286133,-218 105.714,-218 "/>
<text text-anchor="start" x="8.28613" y="-202.8" font-family="Times,serif" font-size="14.00">create</text>
<text text-anchor="start" x="8.28613" y="-188.8" font-family="Times,serif" font-size="14.00">new</text>
<polyline fill="none" stroke="black" points="0.286133,-182 105.714,-182 "/>
<polyline fill="none" stroke="black" points="0.286133,-158 105.714,-158 "/>
<text text-anchor="start" x="8.28613" y="-142.8" font-family="Times,serif" font-size="14.00">_layout</text>
</g>
</g>
</svg>
