<?xml version="1.0" encoding="UTF-8" standalone="no"?>
<!DOCTYPE svg PUBLIC "-//W3C//DTD SVG 1.1//EN"
 "http://www.w3.org/Graphics/SVG/1.1/DTD/svg11.dtd">
<!-- Generated by graphviz version 2.38.0 (20140413.2041)
 -->
<!-- Title: models_diagram Pages: 1 -->
<svg width="425pt" height="153pt"
 viewBox="0.00 0.00 424.69 153.00" xmlns="http://www.w3.org/2000/svg" xmlns:xlink="http://www.w3.org/1999/xlink">
<g id="graph0" class="graph" transform="scale(1 1) rotate(0) translate(4 149)">
<title>models_diagram</title>
<polygon fill="none" stroke="none" points="-4,4 -4,-149 420.688,-149 420.688,4 -4,4"/>
<!-- _diagram_info -->
<g id="node1" class="node"><title>_diagram_info</title>
<text text-anchor="start" x="8" y="-130.6" font-family="Times,serif" font-size="13.00">Models diagram</text>
<text text-anchor="start" x="8" y="-117.6" font-family="Times,serif" font-size="13.00">Date: Jun 05 2016 &#45; 20:17</text>
<text text-anchor="start" x="8" y="-104.6" font-family="Times,serif" font-size="13.00">Migration version: 20160526010928</text>
<text text-anchor="start" x="8" y="-91.6" font-family="Times,serif" font-size="13.00">Generated by RailRoady 1.4.2</text>
<text text-anchor="start" x="8" y="-78.6" font-family="Times,serif" font-size="13.00">http://railroady.prestonlee.com</text>
</g>
<!-- Compromisso -->
<g id="node2" class="node"><title>Compromisso</title>
<ellipse fill="none" stroke="black" cx="284.688" cy="-108.5" rx="59.9704" ry="18"/>
<text text-anchor="middle" x="284.688" y="-104.3" font-family="Times,serif" font-size="14.00">Compromisso</text>
</g>
<!-- Sala -->
<g id="node3" class="node"><title>Sala</title>
<ellipse fill="none" stroke="black" cx="284.688" cy="-18" rx="27" ry="18"/>
<text text-anchor="middle" x="284.688" y="-13.8" font-family="Times,serif" font-size="14.00">Sala</text>
</g>
<!-- Compromisso&#45;&gt;Sala -->
<g id="edge1" class="edge"><title>Compromisso&#45;&gt;Sala</title>
<path fill="none" stroke="#4ff6fc" d="M278.517,-82.1331C277.735,-70.1379 277.745,-55.864 278.546,-43.9255"/>
<ellipse fill="none" stroke="#4ff6fc" cx="278.887" cy="-86.451" rx="4" ry="4"/>
<ellipse fill="#4ff6fc" stroke="#4ff6fc" cx="278.918" cy="-39.6958" rx="4" ry="4"/>
</g>
<!-- Sala&#45;&gt;Compromisso -->
<g id="edge2" class="edge"><title>Sala&#45;&gt;Compromisso</title>
<path fill="none" stroke="#fa692a" d="M290.83,-43.9353C291.593,-55.3171 291.638,-68.82 290.963,-80.447"/>
<ellipse fill="none" stroke="#fa692a" cx="290.457" cy="-39.6958" rx="4" ry="4"/>
<polygon fill="#fa692a" stroke="#fa692a" points="290.961,-80.4696 285.661,-90.0695 290.553,-85.4529 290.146,-90.4363 290.146,-90.4363 290.146,-90.4363 290.553,-85.4529 294.631,-90.8031 290.961,-80.4696 290.961,-80.4696"/>
</g>
<!-- User -->
<g id="node4" class="node"><title>User</title>
<ellipse fill="none" stroke="black" cx="389.688" cy="-108.5" rx="27" ry="18"/>
<text text-anchor="middle" x="389.688" y="-104.3" font-family="Times,serif" font-size="14.00">User</text>
</g>
</g>
</svg>
