<?xml version="1.0" encoding="UTF-8" standalone="no"?>
<!DOCTYPE svg PUBLIC "-//W3C//DTD SVG 1.1//EN"
 "http://www.w3.org/Graphics/SVG/1.1/DTD/svg11.dtd">
<!-- Generated by graphviz version 2.38.0 (20140413.2041)
 -->
<!-- Title: models_diagram Pages: 1 -->
<svg width="573pt" height="288pt"
 viewBox="0.00 0.00 573.19 288.00" xmlns="http://www.w3.org/2000/svg" xmlns:xlink="http://www.w3.org/1999/xlink">
<g id="graph0" class="graph" transform="scale(1 1) rotate(0) translate(4 284)">
<title>models_diagram</title>
<polygon fill="none" stroke="none" points="-4,4 -4,-284 569.19,-284 569.19,4 -4,4"/>
<!-- _diagram_info -->
<g id="node1" class="node"><title>_diagram_info</title>
<text text-anchor="start" x="8" y="-237.6" font-family="Times,serif" font-size="13.00">Models diagram</text>
<text text-anchor="start" x="8" y="-224.6" font-family="Times,serif" font-size="13.00">Date: Jun 05 2016 &#45; 20:17</text>
<text text-anchor="start" x="8" y="-211.6" font-family="Times,serif" font-size="13.00">Migration version: 20160526010928</text>
<text text-anchor="start" x="8" y="-198.6" font-family="Times,serif" font-size="13.00">Generated by RailRoady 1.4.2</text>
<text text-anchor="start" x="8" y="-185.6" font-family="Times,serif" font-size="13.00">http://railroady.prestonlee.com</text>
</g>
<!-- Compromisso -->
<g id="node2" class="node"><title>Compromisso</title>
<path fill="none" stroke="black" d="M237.182,-151.5C237.182,-151.5 346.193,-151.5 346.193,-151.5 352.193,-151.5 358.193,-157.5 358.193,-163.5 358.193,-163.5 358.193,-267.5 358.193,-267.5 358.193,-273.5 352.193,-279.5 346.193,-279.5 346.193,-279.5 237.182,-279.5 237.182,-279.5 231.182,-279.5 225.182,-273.5 225.182,-267.5 225.182,-267.5 225.182,-163.5 225.182,-163.5 225.182,-157.5 231.182,-151.5 237.182,-151.5"/>
<text text-anchor="middle" x="291.688" y="-264.3" font-family="Times,serif" font-size="14.00">Compromisso</text>
<polyline fill="none" stroke="black" points="225.182,-257.5 358.193,-257.5 "/>
<text text-anchor="start" x="233.182" y="-242.3" font-family="Times,serif" font-size="14.00">id :INTEGER</text>
<text text-anchor="start" x="233.182" y="-228.3" font-family="Times,serif" font-size="14.00">titulo :varchar(255)</text>
<text text-anchor="start" x="233.182" y="-214.3" font-family="Times,serif" font-size="14.00">texto :text</text>
<text text-anchor="start" x="233.182" y="-200.3" font-family="Times,serif" font-size="14.00">date :datetime</text>
<text text-anchor="start" x="233.182" y="-186.3" font-family="Times,serif" font-size="14.00">created_at :datetime</text>
<text text-anchor="start" x="233.182" y="-172.3" font-family="Times,serif" font-size="14.00">updated_at :datetime</text>
<text text-anchor="start" x="233.182" y="-158.3" font-family="Times,serif" font-size="14.00">sala_id :integer</text>
</g>
<!-- Sala -->
<g id="node3" class="node"><title>Sala</title>
<path fill="none" stroke="black" d="M225.893,-0.5C225.893,-0.5 357.483,-0.5 357.483,-0.5 363.483,-0.5 369.483,-6.5 369.483,-12.5 369.483,-12.5 369.483,-102.5 369.483,-102.5 369.483,-108.5 363.483,-114.5 357.483,-114.5 357.483,-114.5 225.893,-114.5 225.893,-114.5 219.893,-114.5 213.893,-108.5 213.893,-102.5 213.893,-102.5 213.893,-12.5 213.893,-12.5 213.893,-6.5 219.893,-0.5 225.893,-0.5"/>
<text text-anchor="middle" x="291.688" y="-99.3" font-family="Times,serif" font-size="14.00">Sala</text>
<polyline fill="none" stroke="black" points="213.893,-92.5 369.483,-92.5 "/>
<text text-anchor="start" x="221.893" y="-77.3" font-family="Times,serif" font-size="14.00">id :INTEGER</text>
<text text-anchor="start" x="221.893" y="-63.3" font-family="Times,serif" font-size="14.00">nome :varchar(255)</text>
<text text-anchor="start" x="221.893" y="-49.3" font-family="Times,serif" font-size="14.00">tipo :varchar(255)</text>
<text text-anchor="start" x="221.893" y="-35.3" font-family="Times,serif" font-size="14.00">created_at :datetime</text>
<text text-anchor="start" x="221.893" y="-21.3" font-family="Times,serif" font-size="14.00">updated_at :datetime</text>
<text text-anchor="start" x="221.893" y="-7.3" font-family="Times,serif" font-size="14.00">compromisso_id :integer</text>
</g>
<!-- Compromisso&#45;&gt;Sala -->
<g id="edge1" class="edge"><title>Compromisso&#45;&gt;Sala</title>
<path fill="none" stroke="#b0e1c4" d="M284.962,-143.448C284.915,-136.67 284.937,-129.821 285.027,-123.109"/>
<ellipse fill="none" stroke="#b0e1c4" cx="285.006" cy="-147.499" rx="4" ry="4"/>
<ellipse fill="#b0e1c4" stroke="#b0e1c4" cx="285.106" cy="-118.695" rx="4" ry="4"/>
</g>
<!-- Sala&#45;&gt;Compromisso -->
<g id="edge2" class="edge"><title>Sala&#45;&gt;Compromisso</title>
<path fill="none" stroke="#5e4ac8" d="M298.346,-122.93C298.429,-129.031 298.456,-135.247 298.426,-141.421"/>
<ellipse fill="none" stroke="#5e4ac8" cx="298.27" cy="-118.695" rx="4" ry="4"/>
<polygon fill="#5e4ac8" stroke="#5e4ac8" points="298.425,-141.499 293.826,-151.454 298.375,-146.499 298.326,-151.498 298.326,-151.498 298.326,-151.498 298.375,-146.499 302.825,-151.543 298.425,-141.499 298.425,-141.499"/>
</g>
<!-- User -->
<g id="node4" class="node"><title>User</title>
<path fill="none" stroke="black" d="M388.186,-158.5C388.186,-158.5 553.19,-158.5 553.19,-158.5 559.19,-158.5 565.19,-164.5 565.19,-170.5 565.19,-170.5 565.19,-260.5 565.19,-260.5 565.19,-266.5 559.19,-272.5 553.19,-272.5 553.19,-272.5 388.186,-272.5 388.186,-272.5 382.186,-272.5 376.186,-266.5 376.186,-260.5 376.186,-260.5 376.186,-170.5 376.186,-170.5 376.186,-164.5 382.186,-158.5 388.186,-158.5"/>
<text text-anchor="middle" x="470.688" y="-257.3" font-family="Times,serif" font-size="14.00">User</text>
<polyline fill="none" stroke="black" points="376.186,-250.5 565.19,-250.5 "/>
<text text-anchor="start" x="384.186" y="-235.3" font-family="Times,serif" font-size="14.00">id :INTEGER</text>
<text text-anchor="start" x="384.186" y="-221.3" font-family="Times,serif" font-size="14.00">nome :varchar(255)</text>
<text text-anchor="start" x="384.186" y="-207.3" font-family="Times,serif" font-size="14.00">email :text</text>
<text text-anchor="start" x="384.186" y="-193.3" font-family="Times,serif" font-size="14.00">password_digest :varchar(255)</text>
<text text-anchor="start" x="384.186" y="-179.3" font-family="Times,serif" font-size="14.00">created_at :datetime</text>
<text text-anchor="start" x="384.186" y="-165.3" font-family="Times,serif" font-size="14.00">updated_at :datetime</text>
</g>
</g>
</svg>
